<svg width="967" height="883" viewBox="0 0 967 883" fill="none" xmlns="http://www.w3.org/2000/svg">
  <rect width="967" height="883" fill="white"/>
  <g filter="url(#filter0_dddddddd_0_1)">
    <path
      d="M7 709.5C354.6 177.5 454 29 454 29L496.5 5L512.5 48C552.172 226.164 295.856 706.105 277 709.5L184 850L155.5 872H141.5L133.5 859.5M133.5 839V859.5M133.5 859.5V806L155.5 725L192 649.5M250.5 583L192 649.5M192 649.5L267.5 562.5L312 526.5H334L356 540.5L383 570.5L399 583L408.5 614.5L383 649.5L356 701.5L408.5 630.5L429 614.5H446M454 630.5L446 614.5M446 614.5L454 649.5M446 674.5L454 649.5M454 649.5L429 709.5L446 701.5L454 725H484M512.5 709.5L484 725M484 725L626 630.5L710 540.5L798.5 427L847.5 332L874 250L883.5 131.5V115.5L857 131.5L798.5 212L729 332L684.5 427L626 551.5L574 649.5L544 725L496.5 828H484V806L531.5 709.5H545.75M842.25 828L905.5 850L961 872L913.5 859.5L874 850L842.25 828ZM842.25 828L798.5 812.783M798.5 812.783L710 782L626 741.4M798.5 812.783H760.5L729 828H684.5L669 812.783M669 782V812.783M669 812.783V768L626 791.5H615L626 749V741.4M626 741.4L615 736.083M615 736.083L560 709.5H545.75M615 736.083L583.5 768L574 736.083M560 725L574 736.083M574 736.083L545.75 709.5M545.75 709.5L51.5 526.5L7 502.5"
      stroke="url(#paint0_linear_0_1)"
      stroke-opacity="0.85"
      stroke-width="6"
      shape-rendering="crispEdges"/>
    <path
      d="M7 709.5C354.6 177.5 454 29 454 29L496.5 5L512.5 48C552.172 226.164 295.856 706.105 277 709.5L184 850L155.5 872H141.5L133.5 859.5M133.5 839V859.5M133.5 859.5V806L155.5 725L192 649.5M250.5 583L192 649.5M192 649.5L267.5 562.5L312 526.5H334L356 540.5L383 570.5L399 583L408.5 614.5L383 649.5L356 701.5L408.5 630.5L429 614.5H446M454 630.5L446 614.5M446 614.5L454 649.5M446 674.5L454 649.5M454 649.5L429 709.5L446 701.5L454 725H484M512.5 709.5L484 725M484 725L626 630.5L710 540.5L798.5 427L847.5 332L874 250L883.5 131.5V115.5L857 131.5L798.5 212L729 332L684.5 427L626 551.5L574 649.5L544 725L496.5 828H484V806L531.5 709.5H545.75M842.25 828L905.5 850L961 872L913.5 859.5L874 850L842.25 828ZM842.25 828L798.5 812.783M798.5 812.783L710 782L626 741.4M798.5 812.783H760.5L729 828H684.5L669 812.783M669 782V812.783M669 812.783V768L626 791.5H615L626 749V741.4M626 741.4L615 736.083M615 736.083L560 709.5H545.75M615 736.083L583.5 768L574 736.083M560 725L574 736.083M574 736.083L545.75 709.5M545.75 709.5L51.5 526.5L7 502.5"
      stroke="black"
      stroke-opacity="0.58"
      stroke-width="6"
      shape-rendering="crispEdges"/>
  </g>
  <defs>
    <filter id="filter0_dddddddd_0_1" x="0.488556" y="0.65918" width="965.617" height="882.341" filterUnits="userSpaceOnUse" color-interpolation-filters="sRGB">
      <feFlood flood-opacity="0" result="BackgroundImageFix"/>
      <feColorMatrix in="SourceAlpha" type="matrix" values="0 0 0 0 0 0 0 0 0 0 0 0 0 0 0 0 0 0 127 0" result="hardAlpha"/>
      <feOffset dy="4"/>
      <feGaussianBlur stdDeviation="2"/>
      <feComposite in2="hardAlpha" operator="out"/>
      <feColorMatrix type="matrix" values="0 0 0 0 0 0 0 0 0 0 0 0 0 0 0 0 0 0 0.25 0"/>
      <feBlend mode="normal" in2="BackgroundImageFix" result="effect1_dropShadow_0_1"/>
      <feColorMatrix in="SourceAlpha" type="matrix" values="0 0 0 0 0 0 0 0 0 0 0 0 0 0 0 0 0 0 127 0" result="hardAlpha"/>
      <feOffset dy="4"/>
      <feGaussianBlur stdDeviation="2"/>
      <feComposite in2="hardAlpha" operator="out"/>
      <feColorMatrix type="matrix" values="0 0 0 0 0 0 0 0 0 0 0 0 0 0 0 0 0 0 0.25 0"/>
      <feBlend mode="normal" in2="effect1_dropShadow_0_1" result="effect2_dropShadow_0_1"/>
      <feColorMatrix in="SourceAlpha" type="matrix" values="0 0 0 0 0 0 0 0 0 0 0 0 0 0 0 0 0 0 127 0" result="hardAlpha"/>
      <feOffset dy="4"/>
      <feGaussianBlur stdDeviation="2"/>
      <feComposite in2="hardAlpha" operator="out"/>
      <feColorMatrix type="matrix" values="0 0 0 0 0 0 0 0 0 0 0 0 0 0 0 0 0 0 0.25 0"/>
      <feBlend mode="normal" in2="effect2_dropShadow_0_1" result="effect3_dropShadow_0_1"/>
      <feColorMatrix in="SourceAlpha" type="matrix" values="0 0 0 0 0 0 0 0 0 0 0 0 0 0 0 0 0 0 127 0" result="hardAlpha"/>
      <feOffset dy="4"/>
      <feGaussianBlur stdDeviation="2"/>
      <feComposite in2="hardAlpha" operator="out"/>
      <feColorMatrix type="matrix" values="0 0 0 0 0 0 0 0 0 0 0 0 0 0 0 0 0 0 0.25 0"/>
      <feBlend mode="normal" in2="effect3_dropShadow_0_1" result="effect4_dropShadow_0_1"/>
      <feColorMatrix in="SourceAlpha" type="matrix" values="0 0 0 0 0 0 0 0 0 0 0 0 0 0 0 0 0 0 127 0" result="hardAlpha"/>
      <feOffset dy="4"/>
      <feGaussianBlur stdDeviation="2"/>
      <feComposite in2="hardAlpha" operator="out"/>
      <feColorMatrix type="matrix" values="0 0 0 0 0 0 0 0 0 0 0 0 0 0 0 0 0 0 0.25 0"/>
      <feBlend mode="normal" in2="effect4_dropShadow_0_1" result="effect5_dropShadow_0_1"/>
      <feColorMatrix in="SourceAlpha" type="matrix" values="0 0 0 0 0 0 0 0 0 0 0 0 0 0 0 0 0 0 127 0" result="hardAlpha"/>
      <feOffset dy="4"/>
      <feGaussianBlur stdDeviation="2"/>
      <feComposite in2="hardAlpha" operator="out"/>
      <feColorMatrix type="matrix" values="0 0 0 0 0 0 0 0 0 0 0 0 0 0 0 0 0 0 0.25 0"/>
      <feBlend mode="normal" in2="effect5_dropShadow_0_1" result="effect6_dropShadow_0_1"/>
      <feColorMatrix in="SourceAlpha" type="matrix" values="0 0 0 0 0 0 0 0 0 0 0 0 0 0 0 0 0 0 127 0" result="hardAlpha"/>
      <feOffset dy="4"/>
      <feGaussianBlur stdDeviation="2"/>
      <feComposite in2="hardAlpha" operator="out"/>
      <feColorMatrix type="matrix" values="0 0 0 0 0 0 0 0 0 0 0 0 0 0 0 0 0 0 0.25 0"/>
      <feBlend mode="normal" in2="effect6_dropShadow_0_1" result="effect7_dropShadow_0_1"/>
      <feColorMatrix in="SourceAlpha" type="matrix" values="0 0 0 0 0 0 0 0 0 0 0 0 0 0 0 0 0 0 127 0" result="hardAlpha"/>
      <feOffset dy="4"/>
      <feGaussianBlur stdDeviation="2"/>
      <feComposite in2="hardAlpha" operator="out"/>
      <feColorMatrix type="matrix" values="0 0 0 0 0 0 0 0 0 0 0 0 0 0 0 0 0 0 0.25 0"/>
      <feBlend mode="normal" in2="effect7_dropShadow_0_1" result="effect8_dropShadow_0_1"/>
      <feBlend mode="normal" in="SourceGraphic" in2="effect8_dropShadow_0_1" result="shape"/>
    </filter>
    <linearGradient id="paint0_linear_0_1" x1="484" y1="5" x2="484" y2="872" gradientUnits="userSpaceOnUse">
      <stop stop-color="#F10808"/>
      <stop offset="0.302083" stop-color="#F0E406"/>
      <stop offset="0.442708" stop-color="#F0F40F"/>
      <stop offset="0.614583" stop-color="#0FDB0B"/>
      <stop offset="0.786458" stop-color="#EB2E05"/>
      <stop offset="1" stop-color="#8A06F1"/>
    </linearGradient>
  </defs>
</svg>
